# xmcd
#
# Track frame offsets:
#	150
#	14837
#	35207
#	51720
#	66544
#	81131
#	95061
#	112197
#	128314
#	142942
#	159717
#	175373
#	191392
#	208353
#
# Disc length: 2989 seconds
#
# Revision: 1
# Processed by: cddbd v1.5.2PL0 Copyright (c) Steve Scherf et al.
# Submitted via: audiograbber 1.83.01
#
DISCID=dc0bab0e
DTITLE=Kastelruther Spatzen - Ein Kreuz und eine Rose
DYEAR=2009
DGENRE=Volksmusik
TTITLE0=Ein Kreuz und eine Rose
TTITLE1=Jonas, das Blumenkind
TTITLE2=Sturm in den Dolomiten
TTITLE3=Eine Herde stolzer Pferde
TTITLE4=Dreimal am Tag
TTITLE5=Jetzt gehör ich Dir
TTITLE6=Ein Traum, der alle Ketten sprengt
TTITLE7=Lass uns für die Liebe leben
TTITLE8=Weil das letzte Wort die Sehnsucht hat
TTITLE9=Das Leben hat täglich Geburtstag
TTITLE10=Liebe ist ein Sternenspiel
TTITLE11=Hoffnung heisst das Lied der Erde
TTITLE12=Ein Glück, das es die Liebe gibt
TTITLE13=Das wirklich wahre Leben
EXTD=
EXTT0=
EXTT1=
EXTT2=
EXTT3=
EXTT4=
EXTT5=
EXTT6=
EXTT7=
EXTT8=
EXTT9=
EXTT10=
EXTT11=
EXTT12=
EXTT13=
PLAYORDER=
